<svg xmlns="http://www.w3.org/2000/svg" version="1.1" xmlns:xlink="http://www.w3.org/1999/xlink" width="178.265" height="146.4817"><svg xmlns="http://www.w3.org/2000/svg" id="SvgjsSvg1003" viewBox="0 0 178.265 146.4817"><g id="SvgjsG1002"><path d="M137.1668,26.2852c5.2355-5.9292,11.5837,4.9629,9.4894,11.207,3.9866-.3254,6.4902.6056,7.5106,2.793-1.0531,4.8022.579,12.1725-.4554,18.0446-1.2435,7.0587-10.6475,17.6465-10.5515,20.3658.1914,5.4204,20.9233,18.5315,22.913,33.1824,3.1525,23.2135-16.0631,32.2181-35.906,33.4072l-7,1c-3.6585.0279-7.3412-.0046-11,0,10.4547-3.7048,22.664-4.5319,31.4757-12.0243,14.6554-12.4612,13.5828-33.947-3.8023-43.1491-2.1252-1.1249-11.3446-3.3224-11.6722-3.8421-.6947-1.1018,3.7579-6.4394,4.0554-9.4945.9766-10.0293-4.6817-24.9177-4.0572-38.0069.1169-2.4501-.7202-3.2676,2.0006-1.4831,1.0291,2.3301,6.6065,20.2884,10.9878,17,1.0556-.7923,2.2241-10.2747,1.9384-12.4303-.5603-4.2269-4.5976-11.7603-5.9262-16.5697Z" style="fill:#5a6f35;"></path><path d="M148.1668,20.2852l2.2448.7195c.5884,5.2636,3.0707,5.0787,7.447-.5546l2.3082.8352c6.4619-3.129,21.1049-4.0769,17.5495,7.0502-3.27,10.2338-21.5525,2.8435-23.5495,11.9498l-9.9682-1.0381c1.6053-6.21.9079-13.1806-7.0318-12.9619-.7186-2.6014-4.0627-7.1226,1.0069-9.5266,4.8028-2.2775,5.3007,4.008,9.9931,3.5266Z" style="fill:#6b823e;"></path><path d="M159.1668,18.2852c-2.9464-.1743-5.8105.1872-8.5923,1.0845l-2.4077-1.0845c-.8968-5.5077-2.2322-17.9158,6.4953-17.9162,8.2766-.0003,4.9576,13.1191,4.5047,17.9162Z" style="fill:#6e8140;"></path><path d="M159.1668,18.2852c-.1003,1.0623-.1939,2.5433,1,3-3.4702,1.6803-8.7914,12.7099-12-1-.1355-.5789.1024-1.371,0-2,3.9379-1.8533,7.248-3.5245,11,0Z" style="fill:#899d53;"></path><path d="M130.1668,145.2852c-1.5789,1.7567-4.8451.9836-7,1,1.6171-1.8407,4.8204-.8694,7-1Z" style="fill:#738a43;"></path><path d="M112.1668,146.2852c-21.7546.0273-93.463,3.9639-98.7498-24.7463-4.0569-22.0313,22.4352-35.6132,21.7437-43.6869-.211-2.4638-8.162-11.1718-9.7099-16.3508-1.3806-4.6193-2.1822-23.4818-3.1578-24.6362-2.2125-2.6179-24.4006-.0113-22.1303-13.0135,1.5724-9.0056,15.5153-1.8428,17.0309-2.9916C20.0786,18.6732,12.7533,1.9561,21.9179.433c10.4906-1.7435,6.096,17.531,7.2547,18.8468,2.0289,2.3037,7.228-7.3114,11.9963-4.5299,8.7035,5.0771-13.5385,33.2812-5.0642,41.089,10.8023,9.9526,13.673-25.1783,15.2834-29.8324C58.7827,4.6359,84.4359-6.3507,105.1022,3.8498c15.3402,7.5717,18.925,20.5332,25.0646,34.4354l-.8107.9432c2.7754,13.7473,4.2196,27.351,4.3329,40.8111l-3.0271,6.0557c18.3262,2.9156,30.7201,20.3734,22.8494,38.2532-7.5319,17.1103-24.7142,19.9005-41.3445,21.9367Z" style="fill:#738a43;"></path><path d="M111.9682,79.5871c21.0105-2.4032,19.2126,10.3751.7159,9.7773-12.8543-.4154-15.7317-8.0598-.7159-9.7773Z" style="fill:#5a6f34;"></path><path d="M63.9024,61.4678c6.8857-1.9734,7.8019,5.4923,4.2834,10.3354-7.7636,10.6866-12.8884-7.8693-4.2834-10.3354Z" style="fill:#52692e;"></path><path d="M87.1457,45.2855c-.6691-.2698-3.1627,3.1191-4.7195,3.7599-23.1176,9.5157-32.0769-19.9637-15.2037-32.2046,9.5436-6.9235,13.2987-1.2382,20.3747-1.5934,2.8083-.141,5.6557-3.0087,10.0168-2.9858,23.3472.1224,21.7401,36.7177,2.0712,39.0407-11.3792,1.344-10.9646-5.3818-12.5395-6.0168Z" style="fill:#f7f8f7;"></path><path d="M81.8973,39.0224c-3.6719,4.3818-12.6967,2.6512-12.8175-5.2363-.2283-14.9204,21.1027-4.6507,12.8175,5.2363Z" style="fill:#070706;"></path><circle cx="100.9545" cy="32.1824" r="7.0005" style="fill:#0b0b0a;"></circle></g></svg><style>@media (prefers-color-scheme: light) { :root { filter: none; } }
@media (prefers-color-scheme: dark) { :root { filter: none; } }
</style></svg>